<svg xmlns="http://www.w3.org/2000/svg" viewBox="0 0 839.21 139.62"><defs><style>.cls-1{fill:#7ac943;}.cls-2{fill:#fff;}.cls-3{fill:#333;}</style></defs><title>Siddiq Bus</title><g id="Layer_2" data-name="Layer 2"><g id="Layer_1-2" data-name="Layer 1"><path class="cls-1" d="M129.41,129.41a22.5,22.5,0,0,1-31.82,0L45,76.82V113.5a22.5,22.5,0,0,1-45,0v-91a22.09,22.09,0,0,1,.24-3.27c0-.2.06-.39.1-.59s.07-.45.12-.67A18.32,18.32,0,0,1,1,16c.1-.36.22-.71.35-1.06s.23-.63.36-.94.27-.66.43-1,.2-.43.3-.63a21.65,21.65,0,0,1,1.29-2.24L4,9.62c.35-.5.72-1,1.1-1.45.23-.27.46-.54.7-.8a7.62,7.62,0,0,1,.56-.58,3.41,3.41,0,0,1,.38-.38,7.24,7.24,0,0,1,.63-.61c.25-.22.5-.44.76-.65a20.77,20.77,0,0,1,2.89-2,5.71,5.71,0,0,1,.57-.34,7.31,7.31,0,0,1,.68-.35c.17-.09.34-.18.52-.26s.5-.24.75-.34l.71-.29c.37-.15.74-.29,1.11-.4L15.9,1c.26-.09.53-.16.8-.23l.53-.13a8.63,8.63,0,0,1,.85-.19c.28-.06.55-.11.83-.15l.23,0c.35,0,.7-.1,1.06-.13s.66-.06,1-.08.87,0,1.31,0h91a22.5,22.5,0,0,1,0,45H76.82l52.59,52.59A22.49,22.49,0,0,1,129.41,129.41Z"/><path class="cls-2" d="M110.89,113.89a3,3,0,0,1-2.12-.88L94.62,98.87a3,3,0,1,1,4.24-4.24L113,108.77a3,3,0,0,1-2.12,5.12ZM86.14,89.14A3,3,0,0,1,84,88.26L69.88,74.12a3,3,0,0,1,4.24-4.24L88.26,84a3,3,0,0,1-2.12,5.12ZM61.39,64.39a3,3,0,0,1-2.12-.88L45.13,49.37a3,3,0,0,1,4.24-4.24L63.51,59.27a3,3,0,0,1-2.12,5.12ZM36.64,39.64a3,3,0,0,1-2.12-.88L20.38,24.62a3,3,0,0,1,4.24-4.24L38.76,34.52a3,3,0,0,1-2.12,5.12Z"/><path class="cls-3" d="M214,96.65a31.76,31.76,0,0,0,7.7-.78,14.16,14.16,0,0,0,4.88-2.12,7.11,7.11,0,0,0,2.54-3.18,11.35,11.35,0,0,0,.71-4.1q0-4.8-4.52-8t-15.55-6.86q-4.81-1.7-9.61-3.89a35.35,35.35,0,0,1-8.62-5.51,26.33,26.33,0,0,1-6.22-8.06,25.22,25.22,0,0,1-2.4-11.52,28.53,28.53,0,0,1,2.54-12.23,26.12,26.12,0,0,1,7.21-9.26A33,33,0,0,1,204,15.3a50.82,50.82,0,0,1,15-2,59.93,59.93,0,0,1,29,6.79l-6.36,17.39a60.35,60.35,0,0,0-9.12-3.75,39.54,39.54,0,0,0-12.09-1.62q-7.92,0-11.38,2.19A7.39,7.39,0,0,0,205.54,41a7.75,7.75,0,0,0,1.27,4.52,12.36,12.36,0,0,0,3.6,3.32,31.67,31.67,0,0,0,5.37,2.69q3,1.2,6.71,2.47,7.63,2.83,13.29,5.58a35.56,35.56,0,0,1,9.4,6.43,23.34,23.34,0,0,1,5.58,8.62,34.69,34.69,0,0,1,1.84,12q0,13.71-9.61,21.27t-29,7.56a80.36,80.36,0,0,1-11.73-.78,75.94,75.94,0,0,1-9.26-1.91,53,53,0,0,1-6.93-2.4,52.3,52.3,0,0,1-4.88-2.4l6.22-17.53a55.23,55.23,0,0,0,10.81,4.31A56.07,56.07,0,0,0,214,96.65Z"/><path class="cls-3" d="M287.67,17.63a11.56,11.56,0,0,1-3.75,9.12,13.41,13.41,0,0,1-17.67,0,11.56,11.56,0,0,1-3.75-9.12,11.56,11.56,0,0,1,3.75-9.12,13.41,13.41,0,0,1,17.67,0A11.56,11.56,0,0,1,287.67,17.63Zm-2,95.84H264.62V39.12h21.06Z"/><path class="cls-3" d="M367.53,111.07q-2.83.85-6.5,1.63t-7.7,1.34q-4,.56-8.2.92t-8,.35a46.8,46.8,0,0,1-16.4-2.69,32.91,32.91,0,0,1-12.16-7.7A33.37,33.37,0,0,1,301,92.76a46.35,46.35,0,0,1-2.62-16,54.89,54.89,0,0,1,2.26-16.33A35.52,35.52,0,0,1,307.17,48a27.84,27.84,0,0,1,10.39-7.78,34.85,34.85,0,0,1,14.06-2.69,33.09,33.09,0,0,1,7.84.85,42.45,42.45,0,0,1,7,2.4V7.17l21.06-3.39ZM319.89,75.73q0,9.75,4.38,15.69t13,5.94q2.83,0,5.23-.21t4-.5V58.34a18.33,18.33,0,0,0-5.16-2.12,24.91,24.91,0,0,0-6.43-.85Q319.89,55.37,319.89,75.73Z"/><path class="cls-3" d="M449.37,111.07q-2.83.85-6.5,1.63t-7.7,1.34q-4,.56-8.2.92t-8,.35a46.8,46.8,0,0,1-16.4-2.69,32.91,32.91,0,0,1-12.16-7.7,33.37,33.37,0,0,1-7.56-12.16,46.35,46.35,0,0,1-2.62-16,54.89,54.89,0,0,1,2.26-16.33A35.52,35.52,0,0,1,389,48a27.84,27.84,0,0,1,10.39-7.78,34.85,34.85,0,0,1,14.06-2.69,33.09,33.09,0,0,1,7.84.85,42.49,42.49,0,0,1,7,2.4V7.17l21.06-3.39ZM401.73,75.73q0,9.75,4.38,15.69t13,5.94q2.83,0,5.23-.21t4-.5V58.34a18.33,18.33,0,0,0-5.16-2.12,24.9,24.9,0,0,0-6.43-.85Q401.73,55.37,401.73,75.73Z"/><path class="cls-3" d="M488.66,17.63a11.56,11.56,0,0,1-3.75,9.12,13.41,13.41,0,0,1-17.67,0,11.56,11.56,0,0,1-3.75-9.12,11.56,11.56,0,0,1,3.75-9.12,13.41,13.41,0,0,1,17.67,0A11.57,11.57,0,0,1,488.66,17.63Zm-2,95.84H465.62V39.12h21.06Z"/><path class="cls-3" d="M499.4,76.29A45.51,45.51,0,0,1,502,60.53a34.85,34.85,0,0,1,7.56-12.3,33.57,33.57,0,0,1,12.16-8,44.67,44.67,0,0,1,16.4-2.83q3.82,0,8,.35t8.2.92q4,.57,7.7,1.34t6.5,1.63v98H547.46v-28a39.4,39.4,0,0,1-7.35,2.4,37.76,37.76,0,0,1-8.2.85q-15.83,0-24.17-10.39T499.4,76.29Zm21.49.57q0,20.22,15,20.21a24.86,24.86,0,0,0,6.43-.85,18.34,18.34,0,0,0,5.16-2.12v-38q-1.56-.28-4-.5t-5.23-.21q-8.62,0-13,5.87T520.89,76.86Z"/><path class="cls-3" d="M649.23,114.74q-8.06,0-16-.5a113.42,113.42,0,0,1-16.61-2.33v-95A140.8,140.8,0,0,1,631.42,15q8.06-.64,15-.64a102.11,102.11,0,0,1,17.17,1.34,40.71,40.71,0,0,1,13.5,4.59,24.1,24.1,0,0,1,8.83,8.55,25,25,0,0,1,3.18,13.08q0,11.73-11.31,18.52,9.33,3.53,12.72,9.61a27.65,27.65,0,0,1,3.39,13.71q0,15.41-11.24,23.18T649.23,114.74ZM638.07,54h10.74q10.18,0,14.56-2.61t4.38-8.41q0-5.94-4.52-8.34t-13.29-2.4q-2.83,0-6.08.07t-5.79.35Zm0,16.82v25.3q2.4.29,5.23.42t6.22.14q9.89,0,16-2.83t6.08-10.46q0-6.78-5.09-9.68t-14.56-2.9Z"/><path class="cls-3" d="M770.09,110.92a117,117,0,0,1-13.85,2.9,113.91,113.91,0,0,1-17.81,1.34q-9.47,0-15.76-2.54a23.91,23.91,0,0,1-10-7.14,27.82,27.82,0,0,1-5.23-11,58.84,58.84,0,0,1-1.56-14V39.12H727V78q0,10.18,2.69,14.7t10,4.52q2.26,0,4.81-.21t4.52-.49V39.12h21.06Z"/><path class="cls-3" d="M807.69,98.34q5.79,0,8.2-1.13t2.4-4.38q0-2.54-3.11-4.45a59.26,59.26,0,0,0-9.47-4.31,95.93,95.93,0,0,1-9-3.82,26.34,26.34,0,0,1-6.86-4.74,19.11,19.11,0,0,1-4.38-6.57,24.3,24.3,0,0,1-1.56-9.19q0-10.46,7.77-16.54t21.34-6.08a68.63,68.63,0,0,1,13,1.2A60.83,60.83,0,0,1,836,41l-3.67,16.4a77.72,77.72,0,0,0-8-2.26,43.51,43.51,0,0,0-9.68-1q-9.9,0-9.89,5.51a5.7,5.7,0,0,0,.42,2.26,4.82,4.82,0,0,0,1.7,1.91,23.7,23.7,0,0,0,3.46,2q2.19,1.07,5.58,2.35a86.5,86.5,0,0,1,11.45,5.06,27.4,27.4,0,0,1,7.14,5.38A16.66,16.66,0,0,1,838.15,85a28.47,28.47,0,0,1,1.06,8.18q0,11-8.27,16.64t-23.39,5.64a67.23,67.23,0,0,1-16.47-1.7,66.52,66.52,0,0,1-9.12-2.83l3.53-17.1a69,69,0,0,0,11,3.32A53.54,53.54,0,0,0,807.69,98.34Z"/></g></g></svg>