<svg xmlns="http://www.w3.org/2000/svg" viewBox="0 0 136 136"><defs><style>.cls-1{fill:#7ac943;}.cls-2{fill:#fff;}</style></defs><title>Icon</title><g id="Layer_2" data-name="Layer 2"><g id="Layer_1-2" data-name="Layer 1"><path class="cls-1" d="M129.41,129.41a22.5,22.5,0,0,1-31.82,0L45,76.82V113.5a22.5,22.5,0,0,1-45,0v-91a22.09,22.09,0,0,1,.24-3.27c0-.2.06-.39.1-.59s.07-.45.12-.67A18.32,18.32,0,0,1,1,16c.1-.36.22-.71.35-1.06s.23-.63.36-.94.27-.66.43-1,.2-.43.3-.63a21.65,21.65,0,0,1,1.29-2.24L4,9.62c.35-.5.72-1,1.1-1.45.23-.27.46-.54.7-.8a7.62,7.62,0,0,1,.56-.58,3.41,3.41,0,0,1,.38-.38,7.24,7.24,0,0,1,.63-.61c.25-.22.5-.44.76-.65a20.77,20.77,0,0,1,2.89-2,5.71,5.71,0,0,1,.57-.34,7.31,7.31,0,0,1,.68-.35c.17-.09.34-.18.52-.26s.5-.24.75-.34l.71-.29c.37-.15.74-.29,1.11-.4L15.9,1c.26-.09.53-.16.8-.23l.53-.13a8.63,8.63,0,0,1,.85-.19c.28-.06.55-.11.83-.15l.23,0c.35,0,.7-.1,1.06-.13s.66-.06,1-.08.87,0,1.31,0h91a22.5,22.5,0,0,1,0,45H76.82l52.59,52.59A22.49,22.49,0,0,1,129.41,129.41Z"/><path class="cls-2" d="M110.89,113.89a3,3,0,0,1-2.12-.88L94.62,98.87a3,3,0,1,1,4.24-4.24L113,108.77a3,3,0,0,1-2.12,5.12ZM86.14,89.14A3,3,0,0,1,84,88.26L69.88,74.12a3,3,0,0,1,4.24-4.24L88.26,84a3,3,0,0,1-2.12,5.12ZM61.39,64.39a3,3,0,0,1-2.12-.88L45.13,49.37a3,3,0,0,1,4.24-4.24L63.51,59.27a3,3,0,0,1-2.12,5.12ZM36.64,39.64a3,3,0,0,1-2.12-.88L20.38,24.62a3,3,0,0,1,4.24-4.24L38.76,34.52a3,3,0,0,1-2.12,5.12Z"/></g></g></svg>